# xmcd
#
# Track frame offsets:
#	150
#	28766
#	56595
#	84114
#	108636
#	119052
#	134242
#	146999
#	169803
#	181715
#	206439
#	217352
#	235046
#	252789
#	265742
#	282255
#	299058
#
# Disc length: 4222 seconds
#
# Revision: 0
# Processed by: cddbd v1.5.1PL0 Copyright (c) Steve Scherf et al.
# Submitted via: audiograbber 1.83.01
#
DISCID=14107c11
DTITLE=Fujimori - Si Cumple
DYEAR=2005
DGENRE=Baladas
TTITLE0=1 Sí Cumple
TTITLE1=2  Sí Cumple
TTITLE2=3  Sí Cumple
TTITLE3=4  Sí Cumple
TTITLE4=5  Sí Cumple
TTITLE5=6  Sí Cumple
TTITLE6=7  Sí Cumple
TTITLE7=8  Sí Cumple
TTITLE8=9  Sí Cumple
TTITLE9=10  Sí Cumple
TTITLE10=11  Sí Cumple
TTITLE11=12  Sí Cumple
TTITLE12=13  Sí Cumple
TTITLE13=14  Sí Cumple
TTITLE14=15  Sí Cumple
TTITLE15=6  Sí Cumple
TTITLE16=17  Sí Cumple
EXTD=Cancionero
EXTT0=Si Cumple
EXTT1=
EXTT2=
EXTT3=
EXTT4=
EXTT5=
EXTT6=
EXTT7=
EXTT8=
EXTT9=
EXTT10=
EXTT11=
EXTT12=
EXTT13=
EXTT14=
EXTT15=
EXTT16=Sí Cumple
PLAYORDER=
